G04 ================== begin FILE IDENTIFICATION RECORD ==================*
G04 Layout Name:  C:/USERS/USER/DESKTOP/WORK/CHOPPING_WAVE_OSC/allegro/CHOPPING.brd*
G04 Film Name:    Deign*
G04 File Format:  Gerber RS274X*
G04 File Origin:  Cadence Allegro 17.2-P019*
G04 Origin Date:  Wed Jul 31 11:57:46 2019*
G04 *
G04 Layer:  VIA CLASS/BOTTOM*
G04 Layer:  VIA CLASS/TOP*
G04 Layer:  ROUTE KEEPOUT/ALL*
G04 Layer:  ROUTE KEEPIN/ALL*
G04 Layer:  REF DES/SILKSCREEN_TOP*
G04 Layer:  REF DES/SILKSCREEN_BOTTOM*
G04 Layer:  PIN/BOTTOM*
G04 Layer:  PIN/TOP*
G04 Layer:  PACKAGE KEEPIN/ALL*
G04 Layer:  PACKAGE GEOMETRY/PIN_NUMBER*
G04 Layer:  PACKAGE GEOMETRY/SILKSCREEN_TOP*
G04 Layer:  PACKAGE GEOMETRY/SILKSCREEN_BOTTOM*
G04 Layer:  PACKAGE GEOMETRY/SOLDERMASK_TOP*
G04 Layer:  PACKAGE GEOMETRY/SOLDERMASK_BOTTOM*
G04 Layer:  PACKAGE GEOMETRY/PASTEMASK_TOP*
G04 Layer:  PACKAGE GEOMETRY/PASTEMASK_BOTTOM*
G04 Layer:  ETCH/BOTTOM*
G04 Layer:  ETCH/TOP*
G04 Layer:  BOARD GEOMETRY/OUTLINE*
G04 Layer:  BOARD GEOMETRY/SILKSCREEN_TOP*
G04 Layer:  BOARD GEOMETRY/SILKSCREEN_BOTTOM*
G04 Layer:  BOARD GEOMETRY/SOLDERMASK_TOP*
G04 Layer:  BOARD GEOMETRY/SOLDERMASK_BOTTOM*
G04 Layer:  BOARD GEOMETRY/DESIGN_OUTLINE*
G04 *
G04 Offset:    (0.000 0.000)*
G04 Mirror:    No*
G04 Mode:      Positive*
G04 Rotation:  0*
G04 FullContactRelief:  No*
G04 UndefLineWidth:     0.000*
G04 ================== end FILE IDENTIFICATION RECORD ====================*
%FSLAX25Y25*MOMM*%
%IR0*IPPOS*OFA0.00000B0.00000*MIA0B0*SFA1.00000B1.00000*%
%ADD12C,1.524*%
%ADD11C,1.651*%
%ADD13R,1.524X1.524*%
%ADD10C,.635*%
%ADD14C,1.*%
%ADD15C,.5*%
%ADD17C,2.036*%
%ADD16C,2.164*%
G75*
%LPD*%
G75*
G36*
G01X754200Y500000D02*
Y754200D01*
X500000D01*
Y2890200D01*
G03X568200Y2916400I0J101864D01*
G01X1358200D01*
X1556200Y2718400D01*
X2471300D01*
X2615600Y2862700D01*
Y2879900D01*
G02X2633000Y2887100I10200J-26D01*
G01X2738200Y2781900D01*
X4462800D01*
X4625500Y2944600D01*
X4788200Y2781900D01*
X6562800D01*
X6725500Y2944600D01*
X6888200Y2781900D01*
X8567300D01*
X8711600Y2926200D01*
Y2956300D01*
G03X8743700Y2975900I-36093J95198D01*
G01X8924800D01*
X9029100Y3080200D01*
Y4977000D01*
X8914000Y5092100D01*
X8767700D01*
G03Y4940900I-68200J-75600D01*
G01X8851400D01*
X8877900Y4914400D01*
Y3142800D01*
X8862200Y3127100D01*
X8743700D01*
G03X8574000Y3058600I-68160J-75598D01*
G01X8573800Y3056700D01*
X8560400Y3043300D01*
Y2988800D01*
X8504700Y2933100D01*
X6950800D01*
X6827200Y3056700D01*
X6827000Y3058600D01*
G03X6624000I-101500J-7100D01*
G01X6623800Y3056700D01*
X6588300Y3021200D01*
G02X6571100Y3030500I-7211J7220D01*
G03X6492500Y2951900I-99600J21000D01*
G02X6501800Y2934700I2080J-9989D01*
G01X6500200Y2933100D01*
X4850800D01*
X4727200Y3056700D01*
X4727000Y3058600D01*
G03X4524000I-101500J-7100D01*
G01X4523800Y3056700D01*
X4488300Y3021200D01*
G02X4471100Y3030500I-7211J7220D01*
G03X4392500Y2951900I-99600J21000D01*
G02X4401800Y2934700I2080J-9989D01*
G01X4400200Y2933100D01*
X2800800D01*
X2677200Y3056700D01*
X2677000Y3058600D01*
G03X2474000I-101500J-7100D01*
G01X2473800Y3056700D01*
X2464400Y3047300D01*
Y2925300D01*
X2408700Y2869600D01*
X1618800D01*
X1420800Y3067600D01*
X568200D01*
G03X500000Y3093800I-68200J-75664D01*
G01Y3144200D01*
G03Y3347800I0J101800D01*
G01Y3398200D01*
G03X568200Y3424400I0J101864D01*
G01X1943800D01*
X2107600Y3588200D01*
Y3595100D01*
X2143100Y3630600D01*
Y3745300D01*
G03X2147800Y3876100I-75593J68201D01*
G01X2145000Y3879600D01*
X2190300Y3924900D01*
X2273500D01*
G02X2277900Y3905500I22J-10194D01*
G03X2365100I43600J-92000D01*
G02X2369500Y3924900I4378J9206D01*
G01X2527500D01*
G02X2531900Y3905500I22J-10194D01*
G03X2619100I43600J-92000D01*
G02X2623500Y3924900I4378J9206D01*
G01X3815500D01*
G02X3819900Y3905500I22J-10194D01*
G03X3963100Y3834500I43589J-91995D01*
G02X3980300Y3843800I9989J2080D01*
G01X4015800Y3808300D01*
X4016000Y3806400D01*
G03X4219000I101500J7100D01*
G01X4219200Y3808300D01*
X4254700Y3843800D01*
G02X4271900Y3834500I7211J-7220D01*
G03X4415100Y3905500I99611J-20995D01*
G02X4419500Y3924900I4378J9206D01*
G01X4577500D01*
G02X4581900Y3905500I22J-10194D01*
G03X4669100I43600J-92000D01*
G02X4673500Y3924900I4378J9206D01*
G01X5915500D01*
G02X5919900Y3905500I22J-10194D01*
G03X6063100Y3834500I43589J-91995D01*
G02X6080300Y3843800I9989J2080D01*
G01X6115800Y3808300D01*
X6116000Y3806400D01*
G03X6319000I101500J7100D01*
G01X6319200Y3808300D01*
X6354700Y3843800D01*
G02X6371900Y3834500I7211J-7220D01*
G03X6515100Y3905500I99611J-20995D01*
G02X6519500Y3924900I4378J9206D01*
G01X6677500D01*
G02X6681900Y3905500I22J-10194D01*
G03X6769100I43600J-92000D01*
G02X6773500Y3924900I4378J9206D01*
G01X7865500D01*
G02X7869900Y3905500I22J-10194D01*
G03X7957100I43600J-92000D01*
G02X7961500Y3924900I4378J9206D01*
G01X7996700D01*
X8052400Y3869200D01*
Y3821700D01*
X8065800Y3808300D01*
X8066000Y3806400D01*
G03X8243100Y3881700I101540J7097D01*
G01Y3933800D01*
X8267100Y3957800D01*
Y4948300D01*
G03X8115900I-75600J68200D01*
G01Y4044100D01*
G02X8098500Y4036900I-10200J26D01*
G01X8059300Y4076100D01*
X6373200D01*
X6217500Y3920400D01*
X6061800Y4076100D01*
X4273200D01*
X4117500Y3920400D01*
X3961800Y4076100D01*
X2127700D01*
X1991900Y3940300D01*
Y3881700D01*
G03Y3745300I75600J-68200D01*
G01Y3693200D01*
X1956400Y3657700D01*
Y3650800D01*
X1881200Y3575600D01*
X568200D01*
G03X500000Y3601800I-68200J-75664D01*
G01Y6245800D01*
X754200D01*
Y6500000D01*
X9245800D01*
Y6245800D01*
X9500000D01*
Y3851800D01*
G03Y3648200I0J-101800D01*
G01Y3597800D01*
G03Y3394200I0J-101800D01*
G01Y754200D01*
X9245800D01*
Y500000D01*
X754200D01*
G37*
%LPC*%
G75*
G36*
G01X7811700Y2975300D02*
Y3127700D01*
G02X7837300Y3153300I25600J0D01*
G01X7989700D01*
G02X8015300Y3127700I0J-25600D01*
G01Y2975300D01*
G02X7989700Y2949700I-25600J0D01*
G01X7837300D01*
G02X7811700Y2975300I0J25600D01*
G37*
G36*
G01X5861700D02*
Y3127700D01*
G02X5887300Y3153300I25600J0D01*
G01X6039700D01*
G02X6065300Y3127700I0J-25600D01*
G01Y2975300D01*
G02X6039700Y2949700I-25600J0D01*
G01X5887300D01*
G02X5861700Y2975300I0J25600D01*
G37*
G36*
G01X3761700D02*
Y3127700D01*
G02X3787300Y3153300I25600J0D01*
G01X3939700D01*
G02X3965300Y3127700I0J-25600D01*
G01Y2975300D01*
G02X3939700Y2949700I-25600J0D01*
G01X3787300D01*
G02X3761700Y2975300I0J25600D01*
G37*
G36*
G01X1711700D02*
Y3127700D01*
G02X1737300Y3153300I25600J0D01*
G01X1889700D01*
G02X1915300Y3127700I0J-25600D01*
G01Y2975300D01*
G02X1889700Y2949700I-25600J0D01*
G01X1737300D01*
G02X1711700Y2975300I0J25600D01*
G37*
G36*
G01X9321600Y1045000D02*
X9242000Y965400D01*
X3458000D01*
X3378400Y1045000D01*
Y1435700D01*
G02X3479600I50600J88300D01*
G01Y1087000D01*
X3500000Y1066600D01*
X9200000D01*
X9220400Y1087000D01*
Y5453500D01*
X9200000Y5473900D01*
X4579500D01*
X4559100Y5453500D01*
Y4850800D01*
G02X4457900I-50600J-88300D01*
G01Y5495500D01*
X4537500Y5575100D01*
X9242000D01*
X9321600Y5495500D01*
Y1045000D01*
G37*
G54D17*
X1079500Y4889500D03*
X1813500Y3813500D03*
X1587500Y4889500D03*
X1333500Y4635500D03*
X2321500Y3051500D03*
X2067500D03*
X2603500Y4762500D03*
X2349500D03*
X3429000Y1778000D03*
X3365500Y3175000D03*
X3111500Y3429000D03*
X3365500Y3683000D03*
X3492500Y4762500D03*
X3238500D03*
X4117500Y3051500D03*
X4254500Y4762500D03*
X6217500Y3051500D03*
X8421500D03*
X8167500D03*
X8675500Y3813500D03*
X8421500D03*
X8445500Y4762500D03*
G54D16*
X1213500Y1485500D03*
Y2501500D03*
X1713500Y1485500D03*
Y2501500D03*
X2663500Y1501500D03*
X2213500Y1485500D03*
X2663500Y2517500D03*
X2213500Y2501500D03*
X3238500Y5334000D03*
X4113500Y1435500D03*
Y2451500D03*
X4254500Y5334000D03*
X4763500Y1451500D03*
Y2467500D03*
X4953000Y4762500D03*
Y5270500D03*
X6163500Y1451500D03*
Y2467500D03*
X5969000Y4762500D03*
Y5270500D03*
X6613500Y2451500D03*
X8063500Y1485500D03*
Y2501500D03*
X7629500Y2451500D03*
X8513500Y1501500D03*
Y2517500D03*
%LPD*%
G75*
G36*
G01X246000Y246000D02*
Y754000D01*
X754000D01*
Y246000D01*
X246000D01*
G37*
G36*
G01Y6246000D02*
Y6754000D01*
X754000D01*
Y6246000D01*
X246000D01*
G37*
G36*
G01X9246000Y246000D02*
Y754000D01*
X9754000D01*
Y246000D01*
X9246000D01*
G37*
G36*
G01Y6246000D02*
Y6754000D01*
X9754000D01*
Y6246000D01*
X9246000D01*
G37*
G54D10*
X500000Y500000D03*
D03*
Y6500000D03*
D03*
X9500000Y500000D03*
D03*
Y6500000D03*
D03*
G54D11*
X1213500Y1485500D03*
D03*
Y2501500D03*
D03*
X1713500Y1485500D03*
D03*
Y2501500D03*
D03*
X2663500Y1501500D03*
D03*
X2213500Y1485500D03*
D03*
X2663500Y2517500D03*
D03*
X2213500Y2501500D03*
D03*
X3238500Y5334000D03*
D03*
X4113500Y1435500D03*
D03*
Y2451500D03*
D03*
X4254500Y5334000D03*
D03*
X4763500Y1451500D03*
D03*
Y2467500D03*
D03*
X4953000Y4762500D03*
D03*
Y5270500D03*
D03*
X6163500Y1451500D03*
D03*
Y2467500D03*
D03*
X5969000Y4762500D03*
D03*
Y5270500D03*
D03*
X6613500Y2451500D03*
D03*
X8063500Y1485500D03*
D03*
Y2501500D03*
D03*
X7629500Y2451500D03*
D03*
X8513500Y1501500D03*
D03*
Y2517500D03*
D03*
G54D12*
X500000Y3500000D03*
D03*
Y3246000D03*
D03*
Y2992000D03*
D03*
X1079500Y4889500D03*
D03*
X1813500Y3813500D03*
D03*
X1333500Y4635500D03*
D03*
X1587500Y4889500D03*
D03*
X2575500Y3051500D03*
D03*
X2321500D03*
D03*
X2067500D03*
D03*
X2575500Y3813500D03*
D03*
X2321500D03*
D03*
X2067500D03*
D03*
X2603500Y4762500D03*
D03*
X2349500D03*
D03*
X3429000Y1778000D03*
D03*
Y1524000D03*
D03*
X3365500Y3175000D03*
D03*
X3111500Y3429000D03*
D03*
X3365500Y3683000D03*
D03*
X3492500Y4762500D03*
D03*
X3238500D03*
D03*
X4117500Y3051500D03*
D03*
Y3813500D03*
D03*
X3863500D03*
D03*
X4254500Y4762500D03*
D03*
X4625500Y3051500D03*
D03*
X4371500D03*
D03*
X4625500Y3813500D03*
D03*
X4371500D03*
D03*
X4508500Y4762500D03*
D03*
X6471500Y3051500D03*
D03*
X6217500D03*
D03*
X6471500Y3813500D03*
D03*
X6217500D03*
D03*
X5963500D03*
D03*
X6725500Y3051500D03*
D03*
Y3813500D03*
D03*
X7913500D03*
D03*
X8675500Y3051500D03*
D03*
X8421500D03*
D03*
X8167500D03*
D03*
X8675500Y3813500D03*
D03*
X8421500D03*
D03*
X8167500D03*
D03*
X8699500Y5016500D03*
D03*
X8445500Y4762500D03*
D03*
X8191500Y5016500D03*
D03*
X9500000Y3496000D03*
D03*
Y3750000D03*
D03*
G54D13*
X1813500Y3051500D03*
D03*
X3863500D03*
D03*
X5963500D03*
D03*
X7913500D03*
D03*
G54D14*
G01X500000Y3246000D02*
X881500D01*
G01X2575500Y3051500D02*
X2540000Y3016000D01*
Y2894000D01*
X2440000Y2794000D01*
X1587500D01*
X1389500Y2992000D01*
X500000D01*
G01X2067500Y3813500D02*
Y3661900D01*
X2032000Y3626400D01*
Y3619500D01*
X1912500Y3500000D01*
X500000D01*
G01X4625500Y3051500D02*
X4431500Y2857500D01*
X2769500D01*
X2575500Y3051500D01*
G01X4117500Y3813500D02*
X3930500Y4000500D01*
X2159000D01*
X2067500Y3909000D01*
Y3813500D01*
G01X6217500D02*
X6030500Y4000500D01*
X4304500D01*
X4117500Y3813500D01*
G01X6725500Y3051500D02*
X6531500Y2857500D01*
X4819500D01*
X4625500Y3051500D01*
G01X5969000Y4762500D02*
X6096000Y4889500D01*
X6286500D01*
X6413500Y5016500D01*
Y5170500D01*
X6513500Y5270500D01*
X9044000D01*
X9144000Y5170500D01*
Y4354500D01*
X9044000Y4254500D01*
X5751500D01*
X5651500Y4154500D01*
Y3402000D01*
X5751500Y3302000D01*
X6413500D01*
X6484300Y3231200D01*
Y3064300D01*
X6471500Y3051500D01*
G01X8167500Y3813500D02*
X8128000Y3853000D01*
Y3900500D01*
X8028000Y4000500D01*
X6404500D01*
X6217500Y3813500D01*
G01X8675500Y3051500D02*
X8636000Y3012000D01*
Y2957500D01*
X8536000Y2857500D01*
X6919500D01*
X6725500Y3051500D01*
G01X8675500D02*
X8893500D01*
X8953500Y3111500D01*
Y4945700D01*
X8882700Y5016500D01*
X8699500D01*
G01X8191500D02*
Y3989100D01*
X8167500Y3965100D01*
Y3813500D01*
G54D15*
G01X1213500Y1485500D02*
X812000D01*
X762000Y1535500D01*
Y4826000D01*
X825500Y4889500D01*
X1079500D01*
G01X500000Y3246000D02*
Y3352900D01*
G01Y3139100D02*
Y3246000D01*
G01X1713500Y1485500D02*
Y1320000D01*
X1763500Y1270000D01*
X2603500D01*
X2663500Y1330000D01*
Y1501500D01*
G01X1713500Y2501500D02*
X1714500Y2502500D01*
Y2617000D01*
X1764500Y2667000D01*
X2032000D01*
X2067500Y2702500D01*
Y3051500D01*
G01X1213500Y2501500D02*
X1713500D01*
G01X1333500Y4635500D02*
Y4839500D01*
X1383500Y4889500D01*
X1587500D01*
G01X2349500Y4762500D02*
X2222500Y4889500D01*
X1587500D01*
G01X2213500Y1485500D02*
X2326800D01*
G01X2100200D02*
X2213500D01*
G01D02*
Y1598800D01*
G01Y1372200D02*
Y1485500D01*
G01X2663500Y1501500D02*
X2871000D01*
X2921000Y1551500D01*
Y1728000D01*
X2971000Y1778000D01*
X3429000D01*
G01X2663500Y2517500D02*
X2776800D01*
G01X2550200D02*
X2663500D01*
G01D02*
Y2630800D01*
G01Y2404200D02*
Y2517500D01*
G01X2213500Y2501500D02*
X2286000Y2574000D01*
Y2921000D01*
X2321500Y2956500D01*
Y3051500D01*
G01Y3813500D02*
Y3697500D01*
X2371500Y3647500D01*
X3203400D01*
X3238900Y3683000D01*
X3365500D01*
G01X2349500Y4762500D02*
Y3968100D01*
X2321500Y3940100D01*
Y3813500D01*
G01X2603500Y4762500D02*
X3238500D01*
G01X3429000Y1524000D02*
Y1066000D01*
X3479000Y1016000D01*
X9221000D01*
X9271000Y1066000D01*
Y5474500D01*
X9221000Y5524500D01*
X4558500D01*
X4508500Y5474500D01*
Y4762500D01*
G01X4113500Y1435500D02*
X4075000Y1397000D01*
X3937000D01*
X3873500Y1460500D01*
Y1968500D01*
X3746500Y2095500D01*
X3429000D01*
X3365500Y2159000D01*
Y3175000D01*
G01Y3683000D02*
Y3492500D01*
X3302000Y3429000D01*
X3111500D01*
G01X3238500Y5334000D02*
Y4762500D01*
G01X4763500Y1451500D02*
X4630500D01*
X4621500Y1460500D01*
X4558500D01*
X4508500Y1510500D01*
Y2401500D01*
X4458500Y2451500D01*
X4113500D01*
G01X4117500Y3051500D02*
Y2588500D01*
X4113500Y2584500D01*
Y2451500D01*
G01X4371500Y3051500D02*
X4381500Y3061500D01*
Y3188500D01*
X4331500Y3238500D01*
X3683000D01*
X3619500Y3302000D01*
Y4445000D01*
X3683000Y4508500D01*
X6223000D01*
X6286500Y4572000D01*
Y4712500D01*
X6336500Y4762500D01*
X8445500D01*
G01X3492500D02*
X4254500D01*
G01X4141200Y5334000D02*
X4254500D01*
G01X5905500Y2413000D02*
X5651500D01*
X5597000Y2467500D01*
X4763500D01*
G01D02*
Y2600500D01*
X4889500Y2726500D01*
Y3636900D01*
X4839500Y3686900D01*
X4498100D01*
X4371500Y3813500D01*
G01X4508500Y4762500D02*
X4953000D01*
G01Y5270500D02*
X4749000D01*
X4699000Y5220500D01*
Y5143500D01*
X4635500Y5080000D01*
X4318000D01*
X4254500Y5016500D01*
Y4762500D01*
G01Y5334000D02*
X4367800D01*
G01X4254500D02*
Y5447300D01*
G01Y5220700D02*
Y5334000D01*
G01X5905500Y2413000D02*
Y1524000D01*
X5978000Y1451500D01*
X6163500D01*
G01X6217500Y3051500D02*
Y2653500D01*
X6167500Y2603500D01*
X5955500D01*
X5905500Y2553500D01*
Y2413000D01*
G01X6613500Y2451500D02*
X6312500D01*
X6296500Y2467500D01*
X6163500D01*
G01X6471500Y3051500D02*
X6578400D01*
G01X6364600D02*
X6471500D01*
G01D02*
Y3158400D01*
G01X6613500Y2451500D02*
Y2680500D01*
X6663500Y2730500D01*
X6935000D01*
X7066400Y2861900D01*
Y3569500D01*
X7016400Y3619500D01*
X6538900D01*
X6471500Y3686900D01*
Y3813500D01*
G01X5969000Y4762500D02*
X6082300D01*
G01X5855700D02*
X5969000D01*
G01D02*
Y4875800D01*
G01Y4649200D02*
Y4762500D01*
G01Y5270500D02*
X6082300D01*
G01X5855700D02*
X5969000D01*
G01D02*
Y5383800D01*
G01Y5157200D02*
Y5270500D01*
G01X7629500Y2451500D02*
X7880500D01*
X7930500Y2501500D01*
X8063500D01*
G01X8513500Y1501500D02*
X8626800D01*
G01X8400200D02*
X8513500D01*
G01D02*
Y1614800D01*
G01Y1388200D02*
Y1501500D01*
G01X8063500Y1485500D02*
Y1271000D01*
X8128000Y1206500D01*
X9093900D01*
X9144000Y1256600D01*
Y3569500D01*
X9094000Y3619500D01*
X8488900D01*
X8421500Y3686900D01*
Y3813500D01*
G01Y3051500D02*
X8513500Y2959500D01*
Y2517500D01*
G01X8063500Y2501500D02*
Y2947500D01*
X8167500Y3051500D01*
G01X9500000Y3750000D02*
Y3975500D01*
X9411500Y4064000D01*
X8471500D01*
X8421500Y4014000D01*
Y3813500D01*
G01X9500000Y3389100D02*
Y3496000D01*
G01X9393100D02*
X9500000D01*
G01D02*
Y3602900D01*
M02*
