G04 ================== begin FILE IDENTIFICATION RECORD ==================*
G04 Layout Name:  C:/USERS/USER/DESKTOP/WORK/CHOPPING_WAVE_OSC/allegro/CHOPPING.brd*
G04 Film Name:    SilkT*
G04 File Format:  Gerber RS274X*
G04 File Origin:  Cadence Allegro 17.2-P019*
G04 Origin Date:  Wed Jul 31 12:04:19 2019*
G04 *
G04 Layer:  REF DES/SILKSCREEN_TOP*
G04 Layer:  PACKAGE GEOMETRY/SILKSCREEN_TOP*
G04 Layer:  BOARD GEOMETRY/SILKSCREEN_TOP*
G04 *
G04 Offset:    (0.000 0.000)*
G04 Mirror:    No*
G04 Mode:      Positive*
G04 Rotation:  0*
G04 FullContactRelief:  No*
G04 UndefLineWidth:     0.200*
G04 ================== end FILE IDENTIFICATION RECORD ====================*
%FSLAX25Y25*MOMM*%
%IR0*IPPOS*OFA0.00000B0.00000*MIA0B0*SFA1.00000B1.00000*%
%ADD10C,.2*%
G75*
%LPD*%
G75*
G54D10*
G01X373000Y3627000D02*
X627000D01*
Y2865000D01*
X373000D01*
Y3627000D01*
G01X388200Y3715000D02*
X398200Y3699000D01*
X410100Y3688300D01*
X424000Y3683000D01*
X439900Y3688300D01*
X451900Y3699000D01*
X463800Y3715000D01*
X467800Y3736300D01*
Y3843000D01*
G01X588000Y3683000D02*
Y3843000D01*
X564100Y3811000D01*
G01Y3683000D02*
X611900D01*
G01X1340500Y2349100D02*
Y1637900D01*
X1086500D01*
Y2349100D01*
X1340500D01*
G01X1086700Y2413000D02*
Y2573000D01*
X1136400D01*
X1152400Y2565000D01*
X1162300Y2554300D01*
X1166300Y2533000D01*
X1162300Y2511700D01*
X1150400Y2498300D01*
X1136400Y2490300D01*
X1086700D01*
G01X1136400D02*
X1166300Y2413000D01*
G01X1248700Y2546300D02*
X1260600Y2562300D01*
X1274600Y2570300D01*
X1290500Y2573000D01*
X1310400Y2567700D01*
X1324300Y2554300D01*
X1328300Y2538300D01*
X1326300Y2522300D01*
X1318300Y2509000D01*
X1278500Y2482300D01*
X1260600Y2463700D01*
X1248700Y2437000D01*
X1244700Y2413000D01*
X1328300D01*
G01X1651000Y4508500D02*
X1016000D01*
Y5016500D01*
X1651000D01*
Y4508500D01*
G01X1060200Y5240000D02*
X1110000Y5080000D01*
X1159800Y5240000D01*
G01X1230200Y5080000D02*
Y5240000D01*
X1279900D01*
X1295900Y5232000D01*
X1305800Y5221300D01*
X1309800Y5200000D01*
X1305800Y5178700D01*
X1293900Y5165300D01*
X1279900Y5157300D01*
X1230200D01*
G01X1279900D02*
X1309800Y5080000D01*
G01X1430000D02*
Y5240000D01*
X1406100Y5208000D01*
G01Y5080000D02*
X1453900D01*
G01X1840500Y2349100D02*
Y1637900D01*
X1586500D01*
Y2349100D01*
X1840500D01*
G01X1594700Y2413000D02*
Y2573000D01*
X1644400D01*
X1660400Y2565000D01*
X1670300Y2554300D01*
X1674300Y2533000D01*
X1670300Y2511700D01*
X1658400Y2498300D01*
X1644400Y2490300D01*
X1594700D01*
G01X1644400D02*
X1674300Y2413000D01*
G01X1750700Y2445000D02*
X1762700Y2426300D01*
X1778600Y2415700D01*
X1796500Y2413000D01*
X1812400Y2415700D01*
X1828300Y2429000D01*
X1838300Y2445000D01*
X1840300Y2461000D01*
X1836300Y2479700D01*
X1822400Y2493000D01*
X1808400Y2498300D01*
X1790500D01*
G01X1808400D02*
X1820400Y2506300D01*
X1830300Y2519700D01*
X1834300Y2535700D01*
X1830300Y2551700D01*
X1820400Y2565000D01*
X1802500Y2573000D01*
X1784600Y2570300D01*
X1766600Y2559700D01*
G01X1686500Y3153100D02*
Y3305500D01*
X1750000Y3369000D01*
Y3496000D01*
X1686500Y3559500D01*
Y3711900D01*
X2702500D01*
Y3153100D01*
X1686500D01*
G01X1717700Y3970000D02*
Y3855300D01*
X1725700Y3831300D01*
X1741600Y3815300D01*
X1761500Y3810000D01*
X1781400Y3815300D01*
X1797300Y3831300D01*
X1805300Y3855300D01*
Y3970000D01*
G01X1921500Y3810000D02*
Y3970000D01*
X1897600Y3938000D01*
G01Y3810000D02*
X1945400D01*
G01X2536500Y1653900D02*
Y2365100D01*
X2790500D01*
Y1653900D01*
X2536500D01*
G01X2340500Y2349100D02*
Y1637900D01*
X2086500D01*
Y2349100D01*
X2340500D01*
G01X2547200Y2413000D02*
Y2573000D01*
X2596900D01*
X2612900Y2565000D01*
X2622800Y2554300D01*
X2626800Y2533000D01*
X2622800Y2511700D01*
X2610900Y2498300D01*
X2596900Y2490300D01*
X2547200D01*
G01X2596900D02*
X2626800Y2413000D01*
G01X2747000D02*
X2760900Y2415700D01*
X2776800Y2423700D01*
X2786800Y2437000D01*
X2790800Y2455700D01*
X2786800Y2474300D01*
X2774900Y2490300D01*
X2756900Y2498300D01*
X2737100D01*
X2725100Y2503700D01*
X2715200Y2517000D01*
X2711200Y2535700D01*
X2717200Y2554300D01*
X2731100Y2567700D01*
X2747000Y2573000D01*
X2762900Y2567700D01*
X2776800Y2554300D01*
X2782800Y2535700D01*
X2778800Y2517000D01*
X2768900Y2503700D01*
X2756900Y2498300D01*
X2737100D01*
X2719100Y2490300D01*
X2707200Y2474300D01*
X2703200Y2455700D01*
X2707200Y2437000D01*
X2717200Y2423700D01*
X2733100Y2415700D01*
X2747000Y2413000D01*
G01X2102700D02*
Y2573000D01*
X2152400D01*
X2168400Y2565000D01*
X2178300Y2554300D01*
X2182300Y2533000D01*
X2178300Y2511700D01*
X2166400Y2498300D01*
X2152400Y2490300D01*
X2102700D01*
G01X2152400D02*
X2182300Y2413000D01*
G01X2268700Y2431700D02*
X2282600Y2418300D01*
X2298500Y2413000D01*
X2314400Y2418300D01*
X2328400Y2434300D01*
X2338300Y2458300D01*
X2342300Y2482300D01*
Y2511700D01*
X2338300Y2535700D01*
X2328400Y2557000D01*
X2316400Y2567700D01*
X2302500Y2573000D01*
X2286600Y2567700D01*
X2274600Y2557000D01*
X2266700Y2541000D01*
X2262700Y2519700D01*
X2266700Y2501000D01*
X2276600Y2482300D01*
X2288600Y2471700D01*
X2302500Y2469000D01*
X2318400Y2474300D01*
X2330400Y2487700D01*
X2342300Y2511700D01*
G01X2730500Y4762500D02*
G03I-254000J0D01*
G01X2376800Y5226700D02*
X2364800Y5234700D01*
X2350900Y5240000D01*
X2335000D01*
X2317100Y5232000D01*
X2303200Y5218700D01*
X2293200Y5202700D01*
X2285200Y5176000D01*
X2283200Y5152000D01*
X2287200Y5128000D01*
X2293200Y5112000D01*
X2305100Y5096000D01*
X2319100Y5085300D01*
X2333000Y5080000D01*
X2346900D01*
X2360900Y5085300D01*
X2372800Y5093300D01*
X2382800Y5104000D01*
G01X2493000Y5080000D02*
Y5240000D01*
X2469100Y5208000D01*
G01Y5080000D02*
X2516900D01*
G01X3468700Y317500D02*
X3335300D01*
Y717500D01*
X3468700D01*
G01X3415300Y524200D02*
X3335300D01*
G01X3585300Y717500D02*
Y317500D01*
X3718700D01*
G01X3968700D02*
X3835300D01*
Y717500D01*
X3968700D01*
G01X3915300Y524200D02*
X3835300D01*
G01X4225300Y684200D02*
X4205300Y704200D01*
X4182000Y717500D01*
X4155300D01*
X4125300Y697500D01*
X4102000Y664200D01*
X4085300Y624200D01*
X4072000Y557500D01*
X4068700Y497500D01*
X4075300Y437500D01*
X4085300Y397500D01*
X4105300Y357500D01*
X4128700Y330800D01*
X4152000Y317500D01*
X4175300D01*
X4198700Y330800D01*
X4218700Y350800D01*
X4235300Y377500D01*
G01X4402000Y717500D02*
Y317500D01*
G01X4325300Y717500D02*
X4478700D01*
G01X4585300Y317500D02*
Y717500D01*
X4668700D01*
X4695300Y697500D01*
X4712000Y670800D01*
X4718700Y617500D01*
X4712000Y564200D01*
X4692000Y530800D01*
X4668700Y510800D01*
X4585300D01*
G01X4668700D02*
X4718700Y317500D01*
G01X4902000D02*
X4875300Y324200D01*
X4852000Y350800D01*
X4832000Y390800D01*
X4818700Y437500D01*
X4812000Y490800D01*
Y544200D01*
X4818700Y597500D01*
X4832000Y644200D01*
X4852000Y684200D01*
X4875300Y710800D01*
X4902000Y717500D01*
X4928700Y710800D01*
X4952000Y684200D01*
X4972000Y644200D01*
X4985300Y597500D01*
X4992000Y544200D01*
Y490800D01*
X4985300Y437500D01*
X4972000Y390800D01*
X4952000Y350800D01*
X4928700Y324200D01*
X4902000Y317500D01*
G01X5075300D02*
Y717500D01*
X5228700Y317500D01*
Y717500D01*
G01X5362000D02*
X5442000D01*
G01X5402000D02*
Y317500D01*
G01X5362000D02*
X5442000D01*
G01X5725300Y684200D02*
X5705300Y704200D01*
X5682000Y717500D01*
X5655300D01*
X5625300Y697500D01*
X5602000Y664200D01*
X5585300Y624200D01*
X5572000Y557500D01*
X5568700Y497500D01*
X5575300Y437500D01*
X5585300Y397500D01*
X5605300Y357500D01*
X5628700Y330800D01*
X5652000Y317500D01*
X5675300D01*
X5698700Y330800D01*
X5718700Y350800D01*
X5735300Y377500D01*
G01X6225300Y684200D02*
X6205300Y704200D01*
X6182000Y717500D01*
X6155300D01*
X6125300Y697500D01*
X6102000Y664200D01*
X6085300Y624200D01*
X6072000Y557500D01*
X6068700Y497500D01*
X6075300Y437500D01*
X6085300Y397500D01*
X6105300Y357500D01*
X6128700Y330800D01*
X6152000Y317500D01*
X6175300D01*
X6198700Y330800D01*
X6218700Y350800D01*
X6235300Y377500D01*
G01X6318700Y317500D02*
X6402000Y717500D01*
X6485300Y317500D01*
G01X6455300Y457500D02*
X6348700D01*
G01X6578700Y317500D02*
Y717500D01*
X6645300D01*
X6672000Y697500D01*
X6692000Y670800D01*
X6708700Y630800D01*
X6722000Y584200D01*
X6725300Y517500D01*
X6722000Y450800D01*
X6708700Y404200D01*
X6692000Y364200D01*
X6672000Y337500D01*
X6645300Y317500D01*
X6578700D01*
G01X3683000Y1651000D02*
G03I-254000J0D01*
G01X3392800Y2115200D02*
X3380800Y2123200D01*
X3366900Y2128500D01*
X3351000D01*
X3333100Y2120500D01*
X3319200Y2107200D01*
X3309200Y2091200D01*
X3301200Y2064500D01*
X3299200Y2040500D01*
X3303200Y2016500D01*
X3309200Y2000500D01*
X3321100Y1984500D01*
X3335100Y1973800D01*
X3349000Y1968500D01*
X3362900D01*
X3376900Y1973800D01*
X3388800Y1981800D01*
X3398800Y1992500D01*
G01X3532900Y1968500D02*
Y2128500D01*
X3459200Y2013800D01*
X3558800D01*
G01X2984500Y3111500D02*
Y3746500D01*
X3492500D01*
Y3111500D01*
X2984500D01*
G01X2965200Y3970000D02*
X3015000Y3810000D01*
X3064800Y3970000D01*
G01X3135200Y3810000D02*
Y3970000D01*
X3184900D01*
X3200900Y3962000D01*
X3210800Y3951300D01*
X3214800Y3930000D01*
X3210800Y3908700D01*
X3198900Y3895300D01*
X3184900Y3887300D01*
X3135200D01*
G01X3184900D02*
X3214800Y3810000D01*
G01X3297200Y3943300D02*
X3309100Y3959300D01*
X3323100Y3967300D01*
X3339000Y3970000D01*
X3358900Y3964700D01*
X3372800Y3951300D01*
X3376800Y3935300D01*
X3374800Y3919300D01*
X3366800Y3906000D01*
X3327000Y3879300D01*
X3309100Y3860700D01*
X3297200Y3834000D01*
X3293200Y3810000D01*
X3376800D01*
G01X3619500Y4762500D02*
G03I-254000J0D01*
G01X3436200Y5524500D02*
Y5684500D01*
X3485900D01*
X3501900Y5676500D01*
X3511800Y5665800D01*
X3515800Y5644500D01*
X3511800Y5623200D01*
X3499900Y5609800D01*
X3485900Y5601800D01*
X3436200D01*
G01X3485900D02*
X3515800Y5524500D01*
G01X3592200Y5548500D02*
X3604200Y5535200D01*
X3618100Y5527200D01*
X3636000Y5524500D01*
X3653900Y5529800D01*
X3667800Y5540500D01*
X3677800Y5559200D01*
X3679800Y5580500D01*
X3675800Y5601800D01*
X3665800Y5615200D01*
X3651900Y5625800D01*
X3638000Y5628500D01*
X3624100Y5625800D01*
X3606200Y5615200D01*
X3612100Y5684500D01*
X3665800D01*
G01X3138800Y5226700D02*
X3126800Y5234700D01*
X3112900Y5240000D01*
X3097000D01*
X3079100Y5232000D01*
X3065200Y5218700D01*
X3055200Y5202700D01*
X3047200Y5176000D01*
X3045200Y5152000D01*
X3049200Y5128000D01*
X3055200Y5112000D01*
X3067100Y5096000D01*
X3081100Y5085300D01*
X3095000Y5080000D01*
X3108900D01*
X3122900Y5085300D01*
X3134800Y5093300D01*
X3144800Y5104000D01*
G01X3217200Y5213300D02*
X3229100Y5229300D01*
X3243100Y5237300D01*
X3259000Y5240000D01*
X3278900Y5234700D01*
X3292800Y5221300D01*
X3296800Y5205300D01*
X3294800Y5189300D01*
X3286800Y5176000D01*
X3247000Y5149300D01*
X3229100Y5130700D01*
X3217200Y5104000D01*
X3213200Y5080000D01*
X3296800D01*
G01X3390900Y5461000D02*
X4102100D01*
Y5207000D01*
X3390900D01*
Y5461000D01*
G01X3073300Y6666700D02*
X3053300Y6686700D01*
X3030000Y6700000D01*
X3003300D01*
X2973300Y6680000D01*
X2950000Y6646700D01*
X2933300Y6606700D01*
X2920000Y6540000D01*
X2916700Y6480000D01*
X2923300Y6420000D01*
X2933300Y6380000D01*
X2953300Y6340000D01*
X2976700Y6313300D01*
X3000000Y6300000D01*
X3023300D01*
X3046700Y6313300D01*
X3066700Y6333300D01*
X3083300Y6360000D01*
G01X3180000Y6300000D02*
Y6700000D01*
G01X3320000D02*
Y6300000D01*
G01Y6500000D02*
X3180000D01*
G01X3500000Y6300000D02*
X3473300Y6306700D01*
X3450000Y6333300D01*
X3430000Y6373300D01*
X3416700Y6420000D01*
X3410000Y6473300D01*
Y6526700D01*
X3416700Y6580000D01*
X3430000Y6626700D01*
X3450000Y6666700D01*
X3473300Y6693300D01*
X3500000Y6700000D01*
X3526700Y6693300D01*
X3550000Y6666700D01*
X3570000Y6626700D01*
X3583300Y6580000D01*
X3590000Y6526700D01*
Y6473300D01*
X3583300Y6420000D01*
X3570000Y6373300D01*
X3550000Y6333300D01*
X3526700Y6306700D01*
X3500000Y6300000D01*
G01X3683300D02*
Y6700000D01*
X3763300D01*
X3790000Y6680000D01*
X3810000Y6633300D01*
X3816700Y6580000D01*
X3810000Y6526700D01*
X3793300Y6486700D01*
X3763300Y6466700D01*
X3683300D01*
G01X3933300Y6300000D02*
Y6700000D01*
X4013300D01*
X4040000Y6680000D01*
X4060000Y6633300D01*
X4066700Y6580000D01*
X4060000Y6526700D01*
X4043300Y6486700D01*
X4013300Y6466700D01*
X3933300D01*
G01X4210000Y6700000D02*
X4290000D01*
G01X4250000D02*
Y6300000D01*
G01X4210000D02*
X4290000D01*
G01X4423300D02*
Y6700000D01*
X4576700Y6300000D01*
Y6700000D01*
G01X4770000Y6500000D02*
X4836700D01*
Y6380000D01*
X4816700Y6340000D01*
X4793300Y6313300D01*
X4760000Y6300000D01*
X4726700Y6313300D01*
X4703300Y6340000D01*
X4683300Y6380000D01*
X4670000Y6426700D01*
X4663300Y6480000D01*
Y6526700D01*
X4670000Y6566700D01*
X4683300Y6613300D01*
X4703300Y6653300D01*
X4723300Y6680000D01*
X4750000Y6700000D01*
X4773300D01*
X4800000Y6686700D01*
X4820000Y6660000D01*
G01X5150000Y6700000D02*
X5196700Y6300000D01*
X5250000Y6700000D01*
X5303300Y6300000D01*
X5350000Y6700000D01*
G01X5416700Y6300000D02*
X5500000Y6700000D01*
X5583300Y6300000D01*
G01X5553300Y6440000D02*
X5446700D01*
G01X5666700Y6700000D02*
X5750000Y6300000D01*
X5833300Y6700000D01*
G01X6066700Y6300000D02*
X5933300D01*
Y6700000D01*
X6066700D01*
G01X6013300Y6506700D02*
X5933300D01*
G01X6500000Y6300000D02*
X6473300Y6306700D01*
X6450000Y6333300D01*
X6430000Y6373300D01*
X6416700Y6420000D01*
X6410000Y6473300D01*
Y6526700D01*
X6416700Y6580000D01*
X6430000Y6626700D01*
X6450000Y6666700D01*
X6473300Y6693300D01*
X6500000Y6700000D01*
X6526700Y6693300D01*
X6550000Y6666700D01*
X6570000Y6626700D01*
X6583300Y6580000D01*
X6590000Y6526700D01*
Y6473300D01*
X6583300Y6420000D01*
X6570000Y6373300D01*
X6550000Y6333300D01*
X6526700Y6306700D01*
X6500000Y6300000D01*
G01X6680000Y6353300D02*
X6706700Y6320000D01*
X6736700Y6300000D01*
X6763300D01*
X6790000Y6320000D01*
X6810000Y6353300D01*
X6820000Y6400000D01*
X6813300Y6446700D01*
X6796700Y6486700D01*
X6766700Y6513300D01*
X6726700Y6526700D01*
X6703300Y6553300D01*
X6693300Y6600000D01*
X6700000Y6646700D01*
X6716700Y6680000D01*
X6740000Y6700000D01*
X6763300D01*
X6786700Y6686700D01*
X6806700Y6653300D01*
G01X7073300Y6666700D02*
X7053300Y6686700D01*
X7030000Y6700000D01*
X7003300D01*
X6973300Y6680000D01*
X6950000Y6646700D01*
X6933300Y6606700D01*
X6920000Y6540000D01*
X6916700Y6480000D01*
X6923300Y6420000D01*
X6933300Y6380000D01*
X6953300Y6340000D01*
X6976700Y6313300D01*
X7000000Y6300000D01*
X7023300D01*
X7046700Y6313300D01*
X7066700Y6333300D01*
X7083300Y6360000D01*
G01X4240500Y2299100D02*
Y1587900D01*
X3986500D01*
Y2299100D01*
X4240500D01*
G01X4007700Y2413000D02*
Y2573000D01*
X4057400D01*
X4073400Y2565000D01*
X4083300Y2554300D01*
X4087300Y2533000D01*
X4083300Y2511700D01*
X4071400Y2498300D01*
X4057400Y2490300D01*
X4007700D01*
G01X4057400D02*
X4087300Y2413000D01*
G01X4231400D02*
Y2573000D01*
X4157700Y2458300D01*
X4257300D01*
G01X3736500Y3153100D02*
Y3305500D01*
X3800000Y3369000D01*
Y3496000D01*
X3736500Y3559500D01*
Y3711900D01*
X4752500D01*
Y3153100D01*
X3736500D01*
G01X3813200Y3970000D02*
Y3855300D01*
X3821200Y3831300D01*
X3837100Y3815300D01*
X3857000Y3810000D01*
X3876900Y3815300D01*
X3892800Y3831300D01*
X3900800Y3855300D01*
Y3970000D01*
G01X3979200Y3943300D02*
X3991100Y3959300D01*
X4005100Y3967300D01*
X4021000Y3970000D01*
X4040900Y3964700D01*
X4054800Y3951300D01*
X4058800Y3935300D01*
X4056800Y3919300D01*
X4048800Y3906000D01*
X4009000Y3879300D01*
X3991100Y3860700D01*
X3979200Y3834000D01*
X3975200Y3810000D01*
X4058800D01*
G01X4635500Y4762500D02*
G03I-254000J0D01*
G01X4636500Y1603900D02*
Y2315100D01*
X4890500D01*
Y1603900D01*
X4636500D01*
G01X4642700Y2413000D02*
Y2573000D01*
X4692400D01*
X4708400Y2565000D01*
X4718300Y2554300D01*
X4722300Y2533000D01*
X4718300Y2511700D01*
X4706400Y2498300D01*
X4692400Y2490300D01*
X4642700D01*
G01X4692400D02*
X4722300Y2413000D01*
G01X4842500D02*
Y2573000D01*
X4818600Y2541000D01*
G01Y2413000D02*
X4866400D01*
G01X4408800Y5226700D02*
X4396800Y5234700D01*
X4382900Y5240000D01*
X4367000D01*
X4349100Y5232000D01*
X4335200Y5218700D01*
X4325200Y5202700D01*
X4317200Y5176000D01*
X4315200Y5152000D01*
X4319200Y5128000D01*
X4325200Y5112000D01*
X4337100Y5096000D01*
X4351100Y5085300D01*
X4365000Y5080000D01*
X4378900D01*
X4392900Y5085300D01*
X4404800Y5093300D01*
X4414800Y5104000D01*
G01X4481200Y5112000D02*
X4493200Y5093300D01*
X4509100Y5082700D01*
X4527000Y5080000D01*
X4542900Y5082700D01*
X4558800Y5096000D01*
X4568800Y5112000D01*
X4570800Y5128000D01*
X4566800Y5146700D01*
X4552900Y5160000D01*
X4538900Y5165300D01*
X4521000D01*
G01X4538900D02*
X4550900Y5173300D01*
X4560800Y5186700D01*
X4564800Y5202700D01*
X4560800Y5218700D01*
X4550900Y5232000D01*
X4533000Y5240000D01*
X4515100Y5237300D01*
X4497100Y5226700D01*
G01X5087200Y4953000D02*
Y5113000D01*
X5136900D01*
X5152900Y5105000D01*
X5162800Y5094300D01*
X5166800Y5073000D01*
X5162800Y5051700D01*
X5150900Y5038300D01*
X5136900Y5030300D01*
X5087200D01*
G01X5136900D02*
X5166800Y4953000D01*
G01X5283000D02*
X5287000Y4987700D01*
X5293000Y5017000D01*
X5300900Y5043700D01*
X5310900Y5073000D01*
X5326800Y5113000D01*
X5247200D01*
G01X5105400Y4889500D02*
X5816600D01*
Y4635500D01*
X5105400D01*
Y4889500D01*
G01X5087200Y5524500D02*
Y5684500D01*
X5136900D01*
X5152900Y5676500D01*
X5162800Y5665800D01*
X5166800Y5644500D01*
X5162800Y5623200D01*
X5150900Y5609800D01*
X5136900Y5601800D01*
X5087200D01*
G01X5136900D02*
X5166800Y5524500D01*
G01X5249200Y5591200D02*
X5263100Y5609800D01*
X5275100Y5620500D01*
X5291000Y5625800D01*
X5304900Y5620500D01*
X5314900Y5609800D01*
X5322800Y5593800D01*
X5324800Y5575200D01*
X5322800Y5559200D01*
X5314900Y5543200D01*
X5302900Y5529800D01*
X5289000Y5524500D01*
X5273100Y5529800D01*
X5259100Y5545800D01*
X5251200Y5569800D01*
X5249200Y5596500D01*
X5253200Y5631200D01*
X5259100Y5649800D01*
X5269100Y5668500D01*
X5283000Y5681800D01*
X5296900Y5684500D01*
X5310900Y5679200D01*
X5320800Y5665800D01*
G01X5105400Y5397500D02*
X5816600D01*
Y5143500D01*
X5105400D01*
Y5397500D01*
G01X6036500Y1603900D02*
Y2315100D01*
X6290500D01*
Y1603900D01*
X6036500D01*
G01X5959700Y2413000D02*
Y2573000D01*
X6009400D01*
X6025400Y2565000D01*
X6035300Y2554300D01*
X6039300Y2533000D01*
X6035300Y2511700D01*
X6023400Y2498300D01*
X6009400Y2490300D01*
X5959700D01*
G01X6009400D02*
X6039300Y2413000D01*
G01X6159500D02*
Y2573000D01*
X6135600Y2541000D01*
G01Y2413000D02*
X6183400D01*
G01X6319500Y2573000D02*
X6303600Y2567700D01*
X6291600Y2554300D01*
X6283700Y2538300D01*
X6277700Y2517000D01*
X6275700Y2493000D01*
X6277700Y2469000D01*
X6283700Y2447700D01*
X6291600Y2431700D01*
X6303600Y2418300D01*
X6319500Y2413000D01*
X6335400Y2418300D01*
X6347400Y2431700D01*
X6355300Y2447700D01*
X6361300Y2469000D01*
X6363300Y2493000D01*
X6361300Y2517000D01*
X6355300Y2538300D01*
X6347400Y2554300D01*
X6335400Y2567700D01*
X6319500Y2573000D01*
G01X5836500Y3153100D02*
Y3305500D01*
X5900000Y3369000D01*
Y3496000D01*
X5836500Y3559500D01*
Y3711900D01*
X6852500D01*
Y3153100D01*
X5836500D01*
G01X5845200Y3970000D02*
Y3855300D01*
X5853200Y3831300D01*
X5869100Y3815300D01*
X5889000Y3810000D01*
X5908900Y3815300D01*
X5924800Y3831300D01*
X5932800Y3855300D01*
Y3970000D01*
G01X6005200Y3842000D02*
X6017200Y3823300D01*
X6033100Y3812700D01*
X6051000Y3810000D01*
X6066900Y3812700D01*
X6082800Y3826000D01*
X6092800Y3842000D01*
X6094800Y3858000D01*
X6090800Y3876700D01*
X6076900Y3890000D01*
X6062900Y3895300D01*
X6045000D01*
G01X6062900D02*
X6074900Y3903300D01*
X6084800Y3916700D01*
X6088800Y3932700D01*
X6084800Y3948700D01*
X6074900Y3962000D01*
X6057000Y3970000D01*
X6039100Y3967300D01*
X6021100Y3956700D01*
G01X6785200Y2667000D02*
Y2827000D01*
X6834900D01*
X6850900Y2819000D01*
X6860800Y2808300D01*
X6864800Y2787000D01*
X6860800Y2765700D01*
X6848900Y2752300D01*
X6834900Y2744300D01*
X6785200D01*
G01X6834900D02*
X6864800Y2667000D01*
G01X6985000D02*
Y2827000D01*
X6961100Y2795000D01*
G01Y2667000D02*
X7008900D01*
G01X7107200Y2800300D02*
X7119100Y2816300D01*
X7133100Y2824300D01*
X7149000Y2827000D01*
X7168900Y2821700D01*
X7182800Y2808300D01*
X7186800Y2792300D01*
X7184800Y2776300D01*
X7176800Y2763000D01*
X7137000Y2736300D01*
X7119100Y2717700D01*
X7107200Y2691000D01*
X7103200Y2667000D01*
X7186800D01*
G01X6765900Y2578500D02*
X7477100D01*
Y2324500D01*
X6765900D01*
Y2578500D01*
G01X8190500Y2349100D02*
Y1637900D01*
X7936500D01*
Y2349100D01*
X8190500D01*
G01X7864700Y2413000D02*
Y2573000D01*
X7914400D01*
X7930400Y2565000D01*
X7940300Y2554300D01*
X7944300Y2533000D01*
X7940300Y2511700D01*
X7928400Y2498300D01*
X7914400Y2490300D01*
X7864700D01*
G01X7914400D02*
X7944300Y2413000D01*
G01X8064500D02*
Y2573000D01*
X8040600Y2541000D01*
G01Y2413000D02*
X8088400D01*
G01X8224500D02*
Y2573000D01*
X8200600Y2541000D01*
G01Y2413000D02*
X8248400D01*
G01X7786500Y3153100D02*
Y3305500D01*
X7850000Y3369000D01*
Y3496000D01*
X7786500Y3559500D01*
Y3711900D01*
X8802500D01*
Y3153100D01*
X7786500D01*
G01X7750200Y3970000D02*
Y3855300D01*
X7758200Y3831300D01*
X7774100Y3815300D01*
X7794000Y3810000D01*
X7813900Y3815300D01*
X7829800Y3831300D01*
X7837800Y3855300D01*
Y3970000D01*
G01X7977900Y3810000D02*
Y3970000D01*
X7904200Y3855300D01*
X8003800D01*
G01X8386500Y1653900D02*
Y2365100D01*
X8640500D01*
Y1653900D01*
X8386500D01*
G01X8372700Y2413000D02*
Y2573000D01*
X8422400D01*
X8438400Y2565000D01*
X8448300Y2554300D01*
X8452300Y2533000D01*
X8448300Y2511700D01*
X8436400Y2498300D01*
X8422400Y2490300D01*
X8372700D01*
G01X8422400D02*
X8452300Y2413000D01*
G01X8572500D02*
Y2573000D01*
X8548600Y2541000D01*
G01Y2413000D02*
X8596400D01*
G01X8688700Y2445000D02*
X8700700Y2426300D01*
X8716600Y2415700D01*
X8734500Y2413000D01*
X8750400Y2415700D01*
X8766300Y2429000D01*
X8776300Y2445000D01*
X8778300Y2461000D01*
X8774300Y2479700D01*
X8760400Y2493000D01*
X8746400Y2498300D01*
X8728500D01*
G01X8746400D02*
X8758400Y2506300D01*
X8768300Y2519700D01*
X8772300Y2535700D01*
X8768300Y2551700D01*
X8758400Y2565000D01*
X8740500Y2573000D01*
X8722600Y2570300D01*
X8704600Y2559700D01*
G01X8763000Y4635500D02*
X8128000D01*
Y5143500D01*
X8763000D01*
Y4635500D01*
G01X8108700Y5367000D02*
X8158500Y5207000D01*
X8208300Y5367000D01*
G01X8278700Y5207000D02*
Y5367000D01*
X8328400D01*
X8344400Y5359000D01*
X8354300Y5348300D01*
X8358300Y5327000D01*
X8354300Y5305700D01*
X8342400Y5292300D01*
X8328400Y5284300D01*
X8278700D01*
G01X8328400D02*
X8358300Y5207000D01*
G01X8434700Y5239000D02*
X8446700Y5220300D01*
X8462600Y5209700D01*
X8480500Y5207000D01*
X8496400Y5209700D01*
X8512300Y5223000D01*
X8522300Y5239000D01*
X8524300Y5255000D01*
X8520300Y5273700D01*
X8506400Y5287000D01*
X8492400Y5292300D01*
X8474500D01*
G01X8492400D02*
X8504400Y5300300D01*
X8514300Y5313700D01*
X8518300Y5329700D01*
X8514300Y5345700D01*
X8504400Y5359000D01*
X8486500Y5367000D01*
X8468600Y5364300D01*
X8450600Y5353700D01*
G01X9373000Y3877000D02*
X9627000D01*
Y3369000D01*
X9373000D01*
Y3877000D01*
G01X9341700Y3969000D02*
X9351700Y3953000D01*
X9363600Y3942300D01*
X9377500Y3937000D01*
X9393400Y3942300D01*
X9405400Y3953000D01*
X9417300Y3969000D01*
X9421300Y3990300D01*
Y4097000D01*
G01X9503700Y4070300D02*
X9515600Y4086300D01*
X9529600Y4094300D01*
X9545500Y4097000D01*
X9565400Y4091700D01*
X9579300Y4078300D01*
X9583300Y4062300D01*
X9581300Y4046300D01*
X9573300Y4033000D01*
X9533500Y4006300D01*
X9515600Y3987700D01*
X9503700Y3961000D01*
X9499700Y3937000D01*
X9583300D01*
M02*
