G04 ================== begin FILE IDENTIFICATION RECORD ==================*
G04 Layout Name:  C:/USERS/USER/DESKTOP/WORK/CHOPPING_WAVE_OSC/allegro/CHOPPING.brd*
G04 Film Name:    TOP*
G04 File Format:  Gerber RS274X*
G04 File Origin:  Cadence Allegro 17.2-P019*
G04 Origin Date:  Wed Jul 31 11:57:46 2019*
G04 *
G04 Layer:  ETCH/TOP*
G04 Layer:  PIN/TOP*
G04 Layer:  VIA CLASS/TOP*
G04 *
G04 Offset:    (0.000 0.000)*
G04 Mirror:    No*
G04 Mode:      Positive*
G04 Rotation:  0*
G04 FullContactRelief:  No*
G04 UndefLineWidth:     0.000*
G04 ================== end FILE IDENTIFICATION RECORD ====================*
%FSLAX25Y25*MOMM*%
%IR0*IPPOS*OFA0.00000B0.00000*MIA0B0*SFA1.00000B1.00000*%
%ADD12C,1.524*%
%ADD11C,1.651*%
%ADD13R,1.524X1.524*%
%ADD10C,.635*%
%ADD14C,1.*%
%ADD15C,.5*%
G75*
%LPD*%
G75*
G54D10*
X500000Y500000D03*
Y6500000D03*
X9500000Y500000D03*
Y6500000D03*
G54D11*
X1213500Y1485500D03*
Y2501500D03*
X1713500Y1485500D03*
Y2501500D03*
X2663500Y1501500D03*
X2213500Y1485500D03*
X2663500Y2517500D03*
X2213500Y2501500D03*
X3238500Y5334000D03*
X4113500Y1435500D03*
Y2451500D03*
X4254500Y5334000D03*
X4763500Y1451500D03*
Y2467500D03*
X4953000Y4762500D03*
Y5270500D03*
X6163500Y1451500D03*
Y2467500D03*
X5969000Y4762500D03*
Y5270500D03*
X6613500Y2451500D03*
X8063500Y1485500D03*
Y2501500D03*
X7629500Y2451500D03*
X8513500Y1501500D03*
Y2517500D03*
G54D12*
X500000Y3500000D03*
Y3246000D03*
Y2992000D03*
X1079500Y4889500D03*
X1813500Y3813500D03*
X1333500Y4635500D03*
X1587500Y4889500D03*
X2575500Y3051500D03*
X2321500D03*
X2067500D03*
X2575500Y3813500D03*
X2321500D03*
X2067500D03*
X2603500Y4762500D03*
X2349500D03*
X3429000Y1778000D03*
Y1524000D03*
X3365500Y3175000D03*
X3111500Y3429000D03*
X3365500Y3683000D03*
X3492500Y4762500D03*
X3238500D03*
X4117500Y3051500D03*
Y3813500D03*
X3863500D03*
X4254500Y4762500D03*
X4625500Y3051500D03*
X4371500D03*
X4625500Y3813500D03*
X4371500D03*
X4508500Y4762500D03*
X6471500Y3051500D03*
X6217500D03*
X6471500Y3813500D03*
X6217500D03*
X5963500D03*
X6725500Y3051500D03*
Y3813500D03*
X7913500D03*
X8675500Y3051500D03*
X8421500D03*
X8167500D03*
X8675500Y3813500D03*
X8421500D03*
X8167500D03*
X8699500Y5016500D03*
X8445500Y4762500D03*
X8191500Y5016500D03*
X9500000Y3496000D03*
Y3750000D03*
G54D13*
X1813500Y3051500D03*
X3863500D03*
X5963500D03*
X7913500D03*
G54D14*
G01X5969000Y4762500D02*
X6096000Y4889500D01*
X6286500D01*
X6413500Y5016500D01*
Y5170500D01*
X6513500Y5270500D01*
X9044000D01*
X9144000Y5170500D01*
Y4354500D01*
X9044000Y4254500D01*
X5751500D01*
X5651500Y4154500D01*
Y3402000D01*
X5751500Y3302000D01*
X6413500D01*
X6484300Y3231200D01*
Y3064300D01*
X6471500Y3051500D01*
G54D15*
G01X1213500Y1485500D02*
X812000D01*
X762000Y1535500D01*
Y4826000D01*
X825500Y4889500D01*
X1079500D01*
G01X1713500Y1485500D02*
Y1320000D01*
X1763500Y1270000D01*
X2603500D01*
X2663500Y1330000D01*
Y1501500D01*
G01X1713500Y2501500D02*
X1714500Y2502500D01*
Y2617000D01*
X1764500Y2667000D01*
X2032000D01*
X2067500Y2702500D01*
Y3051500D01*
G01X1213500Y2501500D02*
X1713500D01*
G01X1333500Y4635500D02*
Y4839500D01*
X1383500Y4889500D01*
X1587500D01*
G01X2349500Y4762500D02*
X2222500Y4889500D01*
X1587500D01*
G01X2663500Y1501500D02*
X2871000D01*
X2921000Y1551500D01*
Y1728000D01*
X2971000Y1778000D01*
X3429000D01*
G01X2213500Y2501500D02*
X2286000Y2574000D01*
Y2921000D01*
X2321500Y2956500D01*
Y3051500D01*
G01Y3813500D02*
Y3697500D01*
X2371500Y3647500D01*
X3203400D01*
X3238900Y3683000D01*
X3365500D01*
G01X2349500Y4762500D02*
Y3968100D01*
X2321500Y3940100D01*
Y3813500D01*
G01X2603500Y4762500D02*
X3238500D01*
G01X4113500Y1435500D02*
X4075000Y1397000D01*
X3937000D01*
X3873500Y1460500D01*
Y1968500D01*
X3746500Y2095500D01*
X3429000D01*
X3365500Y2159000D01*
Y3175000D01*
G01Y3683000D02*
Y3492500D01*
X3302000Y3429000D01*
X3111500D01*
G01X3238500Y5334000D02*
Y4762500D01*
G01X4763500Y1451500D02*
X4630500D01*
X4621500Y1460500D01*
X4558500D01*
X4508500Y1510500D01*
Y2401500D01*
X4458500Y2451500D01*
X4113500D01*
G01X4117500Y3051500D02*
Y2588500D01*
X4113500Y2584500D01*
Y2451500D01*
G01X4371500Y3051500D02*
X4381500Y3061500D01*
Y3188500D01*
X4331500Y3238500D01*
X3683000D01*
X3619500Y3302000D01*
Y4445000D01*
X3683000Y4508500D01*
X6223000D01*
X6286500Y4572000D01*
Y4712500D01*
X6336500Y4762500D01*
X8445500D01*
G01X3492500D02*
X4254500D01*
G01X5905500Y2413000D02*
X5651500D01*
X5597000Y2467500D01*
X4763500D01*
G01D02*
Y2600500D01*
X4889500Y2726500D01*
Y3636900D01*
X4839500Y3686900D01*
X4498100D01*
X4371500Y3813500D01*
G01X4508500Y4762500D02*
X4953000D01*
G01Y5270500D02*
X4749000D01*
X4699000Y5220500D01*
Y5143500D01*
X4635500Y5080000D01*
X4318000D01*
X4254500Y5016500D01*
Y4762500D01*
G01X5905500Y2413000D02*
Y1524000D01*
X5978000Y1451500D01*
X6163500D01*
G01X6217500Y3051500D02*
Y2653500D01*
X6167500Y2603500D01*
X5955500D01*
X5905500Y2553500D01*
Y2413000D01*
G01X6613500Y2451500D02*
X6312500D01*
X6296500Y2467500D01*
X6163500D01*
G01X6613500Y2451500D02*
Y2680500D01*
X6663500Y2730500D01*
X6935000D01*
X7066400Y2861900D01*
Y3569500D01*
X7016400Y3619500D01*
X6538900D01*
X6471500Y3686900D01*
Y3813500D01*
G01X7629500Y2451500D02*
X7880500D01*
X7930500Y2501500D01*
X8063500D01*
G01Y1485500D02*
Y1271000D01*
X8128000Y1206500D01*
X9093900D01*
X9144000Y1256600D01*
Y3569500D01*
X9094000Y3619500D01*
X8488900D01*
X8421500Y3686900D01*
Y3813500D01*
G01Y3051500D02*
X8513500Y2959500D01*
Y2517500D01*
G01X8063500Y2501500D02*
Y2947500D01*
X8167500Y3051500D01*
G01X9500000Y3750000D02*
Y3975500D01*
X9411500Y4064000D01*
X8471500D01*
X8421500Y4014000D01*
Y3813500D01*
M02*
